<svg width="46" height="46" viewBox="0 0 46 46" fill="none" xmlns="http://www.w3.org/2000/svg">
<path d="M14.0095 15.3354L15.3354 14.0096C15.4532 13.8917 15.5711 13.8917 15.6889 14.0096L31.2453 29.5659C31.3631 29.6838 31.3631 29.8016 31.2453 29.9195L29.9194 31.2453C29.8016 31.3632 29.6837 31.3632 29.5659 31.2453L14.0095 15.689C13.8917 15.5711 13.8917 15.4533 14.0095 15.3354Z" fill="black" fill-opacity="0.7"/>
<path d="M14.3631 29.2124L29.2124 14.3631C29.3302 14.2453 29.4481 14.2453 29.5659 14.3631L30.8917 15.6889C31.0096 15.8068 31.0096 15.9246 30.8917 16.0425L16.0425 30.8917C15.9246 31.0096 15.8068 31.0096 15.6889 30.8917L14.3631 29.5659C14.2453 29.4481 14.2453 29.3302 14.3631 29.2124Z" fill="black" fill-opacity="0.7"/>
</svg>
