<svg width="46" height="46" fill="none" xmlns="http://www.w3.org/2000/svg"><path d="M14.01 15.335l1.325-1.325c.118-.118.236-.118.354 0l15.556 15.556c.118.118.118.236 0 .354l-1.326 1.325c-.117.118-.235.118-.353 0L14.01 15.69c-.118-.118-.118-.236 0-.354z" fill="#000" fill-opacity=".7"/><path d="M14.363 29.212l14.85-14.849c.117-.118.235-.118.353 0l1.326 1.326c.118.118.118.236 0 .354l-14.85 14.849c-.117.118-.235.118-.353 0l-1.326-1.326c-.118-.118-.118-.236 0-.354z" fill="#000" fill-opacity=".7"/></svg>